<svg width="111" height="43" viewBox="0 0 111 43" fill="none" xmlns="http://www.w3.org/2000/svg">
<path fill-rule="evenodd" clip-rule="evenodd" d="M42.4803 21.6066L42.4805 21.5098C42.4805 9.91179 33.0784 0.509766 21.4805 0.509766C10.656 0.509766 1.7444 8.69944 0.603804 19.2206L12.2697 24.9239C12.8415 24.1282 13.775 23.6099 14.8297 23.6099C15.7224 23.6099 16.5283 23.9812 17.1015 24.5778L26.3791 16.9238C26.3983 15.2006 27.8012 13.8096 29.5289 13.8096C31.136 13.8096 32.462 15.0131 32.6548 16.5679L42.4803 21.6066ZM17.9654 26.4578L27.0787 18.9394C27.6562 19.6532 28.5392 20.1096 29.5289 20.1096C30.6702 20.1096 31.6698 19.5026 32.2223 18.5938L42.3579 23.7916C41.2207 34.3162 32.3074 42.5098 21.4805 42.5098C9.88249 42.5098 0.480469 33.1077 0.480469 21.5098C0.480469 21.4687 0.480587 21.4277 0.480822 21.3867L11.6813 26.8625C11.7355 28.5547 13.1243 29.9099 14.8297 29.9099C16.5694 29.9099 17.9797 28.4996 17.9797 26.7599C17.9797 26.658 17.9748 26.5572 17.9654 26.4578Z" fill="white"/>
<path d="M65.7066 21.6338C66.5719 21.7951 67.2832 22.2278 67.8406 22.9318C68.3979 23.6358 68.6766 24.4424 68.6766 25.3518C68.6766 26.1731 68.4712 26.8991 68.0606 27.5298C67.6646 28.1458 67.0852 28.6298 66.3226 28.9818C65.5599 29.3338 64.6579 29.5098 63.6166 29.5098H56.9946V14.1538H63.3306C64.3719 14.1538 65.2666 14.3224 66.0146 14.6598C66.7772 14.9971 67.3492 15.4664 67.7306 16.0678C68.1266 16.6691 68.3246 17.3511 68.3246 18.1138C68.3246 19.0084 68.0826 19.7564 67.5986 20.3578C67.1292 20.9591 66.4986 21.3844 65.7066 21.6338ZM60.0746 20.4898H62.8906C63.6239 20.4898 64.1886 20.3284 64.5846 20.0058C64.9806 19.6684 65.1786 19.1918 65.1786 18.5758C65.1786 17.9598 64.9806 17.4831 64.5846 17.1458C64.1886 16.8084 63.6239 16.6398 62.8906 16.6398H60.0746V20.4898ZM63.1766 27.0018C63.9246 27.0018 64.5039 26.8258 64.9146 26.4738C65.3399 26.1218 65.5526 25.6231 65.5526 24.9778C65.5526 24.3178 65.3326 23.8044 64.8926 23.4378C64.4526 23.0564 63.8586 22.8658 63.1106 22.8658H60.0746V27.0018H63.1766ZM70.3393 23.3718C70.3393 22.1398 70.5813 21.0471 71.0653 20.0938C71.5639 19.1404 72.2313 18.4071 73.0673 17.8938C73.9179 17.3804 74.8639 17.1238 75.9053 17.1238C76.8146 17.1238 77.6066 17.3071 78.2813 17.6738C78.9706 18.0404 79.5206 18.5024 79.9313 19.0598V17.3218H83.0333V29.5098H79.9313V27.7278C79.5353 28.2998 78.9853 28.7764 78.2813 29.1578C77.5919 29.5244 76.7926 29.7078 75.8833 29.7078C74.8566 29.7078 73.9179 29.4438 73.0673 28.9158C72.2313 28.3878 71.5639 27.6471 71.0653 26.6938C70.5813 25.7258 70.3393 24.6184 70.3393 23.3718ZM79.9313 23.4158C79.9313 22.6678 79.7846 22.0298 79.4913 21.5018C79.1979 20.9591 78.8019 20.5484 78.3033 20.2698C77.8046 19.9764 77.2693 19.8298 76.6973 19.8298C76.1253 19.8298 75.5973 19.9691 75.1133 20.2478C74.6293 20.5264 74.2333 20.9371 73.9253 21.4798C73.6319 22.0078 73.4853 22.6384 73.4853 23.3718C73.4853 24.1051 73.6319 24.7504 73.9253 25.3078C74.2333 25.8504 74.6293 26.2684 75.1133 26.5618C75.6119 26.8551 76.1399 27.0018 76.6973 27.0018C77.2693 27.0018 77.8046 26.8624 78.3033 26.5838C78.8019 26.2904 79.1979 25.8798 79.4913 25.3518C79.7846 24.8091 79.9313 24.1638 79.9313 23.4158ZM90.7054 29.7078C89.7081 29.7078 88.8134 29.5318 88.0214 29.1798C87.2294 28.8131 86.5988 28.3218 86.1294 27.7058C85.6748 27.0898 85.4254 26.4078 85.3814 25.6598H88.4834C88.5421 26.1291 88.7694 26.5178 89.1654 26.8258C89.5761 27.1338 90.0821 27.2878 90.6834 27.2878C91.2701 27.2878 91.7248 27.1704 92.0474 26.9358C92.3848 26.7011 92.5534 26.4004 92.5534 26.0338C92.5534 25.6378 92.3481 25.3444 91.9374 25.1538C91.5414 24.9484 90.9034 24.7284 90.0234 24.4938C89.1141 24.2738 88.3661 24.0464 87.7794 23.8118C87.2074 23.5771 86.7088 23.2178 86.2834 22.7338C85.8728 22.2498 85.6674 21.5971 85.6674 20.7758C85.6674 20.1011 85.8581 19.4851 86.2394 18.9278C86.6354 18.3704 87.1928 17.9304 87.9114 17.6078C88.6448 17.2851 89.5028 17.1238 90.4854 17.1238C91.9374 17.1238 93.0961 17.4904 93.9614 18.2238C94.8268 18.9424 95.3034 19.9178 95.3914 21.1498H92.4434C92.3994 20.6658 92.1941 20.2844 91.8274 20.0058C91.4754 19.7124 90.9988 19.5658 90.3974 19.5658C89.8401 19.5658 89.4074 19.6684 89.0994 19.8738C88.8061 20.0791 88.6594 20.3651 88.6594 20.7318C88.6594 21.1424 88.8648 21.4578 89.2754 21.6778C89.6861 21.8831 90.3241 22.0958 91.1894 22.3158C92.0694 22.5358 92.7954 22.7631 93.3674 22.9978C93.9394 23.2324 94.4308 23.5991 94.8414 24.0978C95.2668 24.5818 95.4868 25.2271 95.5014 26.0338C95.5014 26.7378 95.3034 27.3684 94.9074 27.9258C94.5261 28.4831 93.9688 28.9231 93.2354 29.2458C92.5168 29.5538 91.6734 29.7078 90.7054 29.7078ZM109.36 23.1518C109.36 23.5918 109.33 23.9878 109.272 24.3398H100.362C100.435 25.2198 100.743 25.9091 101.286 26.4078C101.828 26.9064 102.496 27.1558 103.288 27.1558C104.432 27.1558 105.246 26.6644 105.73 25.6818H109.052C108.7 26.8551 108.025 27.8231 107.028 28.5858C106.03 29.3338 104.806 29.7078 103.354 29.7078C102.18 29.7078 101.124 29.4511 100.186 28.9378C99.2617 28.4098 98.5357 27.6691 98.0077 26.7158C97.4944 25.7624 97.2377 24.6624 97.2377 23.4158C97.2377 22.1544 97.4944 21.0471 98.0077 20.0938C98.5211 19.1404 99.2397 18.4071 100.164 17.8938C101.088 17.3804 102.151 17.1238 103.354 17.1238C104.512 17.1238 105.546 17.3731 106.456 17.8718C107.38 18.3704 108.091 19.0818 108.59 20.0058C109.103 20.9151 109.36 21.9638 109.36 23.1518ZM106.17 22.2718C106.155 21.4798 105.869 20.8491 105.312 20.3798C104.754 19.8958 104.072 19.6538 103.266 19.6538C102.503 19.6538 101.858 19.8884 101.33 20.3578C100.816 20.8124 100.501 21.4504 100.384 22.2718H106.17Z" fill="white"/>
</svg>
